<svg width="35" height="27" viewBox="0 0 35 27" fill="none" xmlns="http://www.w3.org/2000/svg">
<path fill-rule="evenodd" clip-rule="evenodd" d="M32.9293 26.7892C32.9293 26.7892 35.0746 26.7892 35.0746 24.6246C35.0746 22.46 32.9293 15.9662 24.3482 15.9662C15.767 15.9662 13.6217 22.46 13.6217 24.6246C13.6217 26.7892 15.767 26.7892 15.767 26.7892H32.9293ZM15.8142 24.6246H32.8821C32.8922 24.6234 32.9022 24.622 32.9122 24.6203L32.9293 24.616C32.925 24.0445 32.5711 22.3864 31.2989 20.8928C30.1147 19.4923 28.0338 18.1308 24.3482 18.1308C20.6647 18.1308 18.5838 19.4945 17.3974 20.8928C16.1253 22.3864 15.7692 24.0467 15.767 24.616C15.7827 24.619 15.7985 24.6219 15.8142 24.6246ZM24.3482 11.6369C25.4861 11.6369 26.5774 11.1808 27.3821 10.3689C28.1867 9.55703 28.6388 8.45587 28.6388 7.30769C28.6388 6.15951 28.1867 5.05835 27.3821 4.24646C26.5774 3.43457 25.4861 2.97846 24.3482 2.97846C23.2102 2.97846 22.1189 3.43457 21.3143 4.24646C20.5096 5.05835 20.0576 6.15951 20.0576 7.30769C20.0576 8.45587 20.5096 9.55703 21.3143 10.3689C22.1189 11.1808 23.2102 11.6369 24.3482 11.6369ZM30.784 7.30769C30.784 8.16047 30.6176 9.00491 30.2941 9.79278C29.9707 10.5806 29.4966 11.2965 28.899 11.8995C28.3014 12.5025 27.5919 12.9809 26.8111 13.3072C26.0302 13.6336 25.1933 13.8015 24.3482 13.8015C23.503 13.8015 22.6661 13.6336 21.8853 13.3072C21.1044 12.9809 20.395 12.5025 19.7973 11.8995C19.1997 11.2965 18.7256 10.5806 18.4022 9.79278C18.0788 9.00491 17.9123 8.16047 17.9123 7.30769C17.9123 5.58541 18.5904 3.93368 19.7973 2.71585C21.0043 1.49801 22.6413 0.813843 24.3482 0.813843C26.0551 0.813843 27.6921 1.49801 28.899 2.71585C30.106 3.93368 30.784 5.58541 30.784 7.30769ZM15.6297 16.5722C14.7716 16.2996 13.887 16.1203 12.991 16.0376C12.4876 15.9893 11.9821 15.9654 11.4764 15.9662C2.89529 15.9662 0.75 22.46 0.75 24.6246C0.75 26.0684 1.46438 26.7892 2.89529 26.7892H11.9398C11.6218 26.1135 11.4632 25.3726 11.4764 24.6246C11.4764 22.4384 12.2852 20.2045 13.8148 18.3386C14.3361 17.7022 14.9432 17.1069 15.6297 16.5722ZM11.3048 18.1308C7.72648 18.1741 5.69489 19.5161 4.52571 20.8928C3.24497 22.3951 2.89529 24.0596 2.89529 24.6246H9.33115C9.33115 22.3626 10.0241 20.1092 11.3048 18.1308ZM3.96793 8.39C3.96793 6.66772 4.646 5.01599 5.85295 3.79815C7.05991 2.58032 8.6969 1.89615 10.4038 1.89615C12.1107 1.89615 13.7477 2.58032 14.9546 3.79815C16.1616 5.01599 16.8397 6.66772 16.8397 8.39C16.8397 10.1123 16.1616 11.764 14.9546 12.9818C13.7477 14.1997 12.1107 14.8838 10.4038 14.8838C8.6969 14.8838 7.05991 14.1997 5.85295 12.9818C4.646 11.764 3.96793 10.1123 3.96793 8.39ZM10.4038 4.06077C9.26587 4.06077 8.17454 4.51688 7.3699 5.32877C6.56526 6.14066 6.11322 7.24181 6.11322 8.39C6.11322 9.53818 6.56526 10.6393 7.3699 11.4512C8.17454 12.2631 9.26587 12.7192 10.4038 12.7192C11.5417 12.7192 12.6331 12.2631 13.4377 11.4512C14.2423 10.6393 14.6944 9.53818 14.6944 8.39C14.6944 7.24181 14.2423 6.14066 13.4377 5.32877C12.6331 4.51688 11.5417 4.06077 10.4038 4.06077Z" fill="#23A6F0"/>
</svg>
